<svg height="100" width="100" xmlns="http://www.w3.org/2000/svg"><path d="m32.550781 11c-6.889711 0-12.550781 5.66107-12.550781 12.550781 0 3.886448 1.802247 7.379112 4.609375 9.6875l-10.126953 20.927735c-.631265-.099801-1.273139-.166016-1.931641-.166016-6.889711 0-12.55078123 5.66107-12.550781 12.550781-.00000023 6.889712 5.6610701 12.548829 12.550781 12.548828 6.651026 0 12.10505-5.287903 12.478516-11.851562a3.5 3.5 0 0 0 .070312-.697266 3.5 3.5 0 0 0 -.070312-.697265c-.195622-3.4407-1.796212-6.521497-4.224609-8.683594l10.24414-21.169922c.493949.060026.992795.099609 1.501953.099609 4.613445.000001 8.647015-2.545476 10.8125-6.294921l17.806641 4.707031c.934371 5.845556 5.950131 10.383829 12.001953 10.568359l7.005859 21.355469c-3.125458 2.291131-5.177734 5.976013-5.177734 10.115234 0 6.889712 5.66107 12.548829 12.550781 12.548828 6.651027.000001 12.105047-5.287903 12.478519-11.851562a3.5 3.5 0 0 0 .07031-.697266 3.5 3.5 0 0 0 -.07031-.697265c-.373199-6.563912-5.827309-11.853516-12.478519-11.853516-.267053 0-.527912.02231-.791015.039062l-6.804688-20.742187c3.450902-2.090391 5.83226-5.796404 6.074219-10.048828a3.5 3.5 0 0 0 .070312-.697266 3.5 3.5 0 0 0 -.070312-.697265c-.373193-6.563912-5.827306-11.853516-12.478516-11.853516-5.099734 0-9.518746 3.105987-11.474609 7.511719l-17.019531-4.5a3.5 3.5 0 0 0 -.027344-.158203c-.373193-6.563912-5.827306-11.853516-12.478516-11.853516zm0 7c3.106631 0 5.548828 2.444151 5.548828 5.550781 0 3.106631-2.442197 5.548828-5.548828 5.548828-3.10663 0-5.550781-2.442197-5.550781-5.548828 0-3.10663 2.444151-5.550781 5.550781-5.550781zm41 9c3.106631 0 5.548828 2.444151 5.548828 5.550781 0 3.106631-2.442197 5.548828-5.548828 5.548828-3.10663 0-5.550781-2.442197-5.550781-5.548828 0-3.10663 2.444151-5.550781 5.550781-5.550781zm-61 34c3.10663 0 5.548828 2.444151 5.548828 5.550781s-2.442198 5.548828-5.548828 5.548828-5.5507811-2.442197-5.550781-5.548828c-.0000001-3.10663 2.444151-5.550781 5.550781-5.550781zm75 10c3.106631 0 5.548828 2.444151 5.548828 5.550781 0 3.106631-2.442197 5.548828-5.548828 5.548828-3.10663 0-5.550781-2.442197-5.550781-5.548828 0-3.10663 2.444151-5.550781 5.550781-5.550781z" fill="#000080"/></svg>